# xmcd CD database file
# Copyright (C) 1993-1998 Ti Kan
#
# Track frame offsets:
#	150
#	14155
#	28255
#	50142
#	62407
#	76455
#	91590
#	103767
#	140610
#	157885
#
# Disc length: 2228 seconds
#
# Revision: 1
# Processed by: cddbd v1.4b41PL1 Copyright (c) Steve Scherf et al.
# Submitted via: CDValet v3.01 - Copyright (c) 1997 Greg Leichner
#
DISCID=8008b20a
DTITLE=Mojo Men, The - Meat 'N Three
DYEAR=1900
DGENRE=
TTITLE0=Gas Tank For A Love Machine
TTITLE1=Natural Born Fool
TTITLE2=Torn Between The Two
TTITLE3=Willie Dixon Line
TTITLE4=Deadman Blues
TTITLE5=Tell Me The Truth
TTITLE6=It Happened To Me
TTITLE7=T.V. Dinner Blues - Goin' To Mama's
TTITLE8=One of These Mornings
TTITLE9=The Bear
EXTD=The Mojo Men:\nStan Hedges - Guitar, Vocals\nWill Rhodarmer - Harmonica, 
EXTD=Vocals\nMark Perrou - Bass\nPat O'Connor - Drums\n\nSpecial Guests:\nMira
EXTD=nda Louise - Background Vocals on Tracks 1, 2, 3 and 8\nDennis Taylor - Ten
EXTD=or and Baritone Sax. on Tracks 2 and 3\nBill Fanning - Trumpet on Track 3\n
EXTD=Hal Newman - Keyboards on Tracks 3 and 6\nThe part of Stan's Mama was playe
EXTD=d by... Stans Mama, \n"Mama" Jane Castillo on Track 8
EXTT0=
EXTT1=
EXTT2=
EXTT3=
EXTT4=
EXTT5=
EXTT6=
EXTT7=
EXTT8=
EXTT9=
PLAYORDER=
